<svg id="8a50d141-1553-4c16-aca6-27c1737fbd9f" data-name="Ebene 2" xmlns="http://www.w3.org/2000/svg" viewBox="0 0 747.58 133.65"><path d="M43.41,11.52H35.9L0,51.81v5.57H13.54v40c0,24.5,14.31,35.58,33.7,36.13,0,0,12.44,1.56,30.59-5.88V106c-8.41,4-15.07,6-20.15,5.52-13.43-1.41-14.34-10.74-14.34-14.15v-40H77.79V37.11H43.41Z"/><path d="M607.9,35.27c-22.15-.31-31.75,15-31.75,15V37H546.09v94.86h30.06V71s7.48-15.6,21-15.8c0,0,14.14-1.06,14.14,18.46v58.2h29.8V72.25C641.25,46.62,624.58,35.51,607.9,35.27Z"/><path d="M714.29,35.27c-22.22-.31-31.85,15-31.85,15V37H652.29v94.86h30.15V71s7.51-15.6,21.11-15.8c0,0,14.18-1.06,14.18,18.46v58.2h29.85V72.25C747.79,46.62,731,35.51,714.29,35.27Z"/><path d="M162.1,87.25c0-24.13,11.36-36.35,11.36-36.35-5.12-8.25-14.12-16.2-31.19-15.43-18.19.82-28.69,15.83-28.69,15.83V0H83.87V131.81h29.61V71.54S122.31,57,132.53,57c0,0,15.39-2,16.1,19.54l.06,55.31h35.23C172.84,124,162.1,107.94,162.1,87.25Z"/><path d="M405.12,35.81c-22.37,0-36.71,20.09-36.71,20.09-9.16-21.29-32.76-20.29-32.76-20.29C312,35.61,301.45,50,301.45,50V37.69H260c12.78,6.86,26.32,21.56,27.18,47.25.76,22.75-10.76,40.22-23.36,46.83h37.73V68.44s11.41-12.82,21.41-12.82c0,0,19.34-1.16,19.34,19.18l.1,57h29.79V71.69s9.43-16.13,22.93-16.13c17.17,0,17.68,18.74,17.68,18.74v57.51h30V71.56C441.08,33.12,405.12,35.81,405.12,35.81Z"/><circle cx="224.46" cy="86.4" r="25.13" fill="#00b5bd"/><path d="M533,105.81v-44s1.23-27.49-41-26.51C464.9,35.93,451.87,47,451.87,47V71.09s12.32-12.75,30.38-15.44c23.5-3.5,21,15.07,21,15.07l-22.8,7.43s-11,4-15.84,6.34c-18.92,9.13-17.49,26.5-17.49,26.5a22.39,22.39,0,0,0,11.38,18.43c21,12.27,46.07-6.3,46.07-6.3S507,134,520.82,133.62c8.71-.24,19.88-4.45,19.88-4.45v-15.9C532.25,115.62,533,105.81,533,105.81ZM487.79,92.46c3.84-2.15,7.17-3.17,15.48-6.47v22.92s-16.66,11.84-23.44,3.65C479.79,112.56,469.67,102.56,487.79,92.46Z"/></svg>